<?xml version="1.0" encoding="UTF-8" standalone="no"?><!DOCTYPE svg PUBLIC "-//W3C//DTD SVG 1.1//EN" "http://www.w3.org/Graphics/SVG/1.1/DTD/svg11.dtd"><svg width="100%" height="100%" viewBox="0 0 120 120" version="1.1" xmlns="http://www.w3.org/2000/svg" xmlns:xlink="http://www.w3.org/1999/xlink" xml:space="preserve" xmlns:serif="http://www.serif.com/" style="fill-rule:evenodd;clip-rule:evenodd;stroke-linejoin:round;stroke-miterlimit:2;"><path id="Bottomfur" d="M95.799,75.144l8.633,4.821l-21.949,11.037l-10.881,14.369l-23.204,0l-10.881,-14.369l-21.949,-11.037l8.648,-4.829l35.816,5.471l35.767,-5.463Zm-39.127,26.568c1.955,1.528 4.701,1.528 6.656,-0l7.945,-6.21c1.818,-1.421 2.533,-3.838 1.782,-6.019c-0.751,-2.18 -2.803,-3.644 -5.11,-3.644l-15.89,-0c-2.307,-0 -4.359,1.464 -5.11,3.644c-0.751,2.181 -0.036,4.598 1.782,6.019l7.945,6.21Z" style="fill:#fff;"/><path id="Topfur" d="M80.429,32.011l16.808,-10.905l-2.007,38.595l9.202,2.325l-12.166,11.822l3.533,1.776l-35.767,5.463l-35.816,-5.471l3.518,-1.768l-12.166,-11.822l9.202,-2.325l-2.007,-38.595l16.808,10.905c-0.192,0.554 -0.296,1.149 -0.296,1.768l-0,7.66c-0,2.985 2.42,5.405 5.405,5.405l30.64,0c2.985,0 5.405,-2.42 5.405,-5.405l0,-7.66c0,-0.619 -0.104,-1.214 -0.296,-1.768Z" style="fill:#ffb062;"/><path id="Outline" d="M8.069,71.059l-0.658,-0.639l-1.929,-2.456l-1.197,-2.828l-0.421,-3.041l0.399,-3.098l1.203,-2.883l1.885,-2.424l2.451,-1.85l2.78,-1.114l-1.508,-29.012l0.28,-3.224l1.124,-2.971l1.881,-2.56l2.551,-1.99l2.999,-1.215l3.158,-0.349l3.135,0.513l2.932,1.369l11.855,7.692l0,-4.35l0.238,-2.353l0.685,-2.205l1.08,-1.991l1.426,-1.728l1.728,-1.425l1.99,-1.081l2.206,-0.684l2.352,-0.238l14.612,-0l2.352,0.238l2.206,0.684l1.99,1.081l1.728,1.425l1.426,1.728l1.08,1.991l0.685,2.205l0.238,2.353l-0,4.35l11.855,-7.692l2.932,-1.369l3.135,-0.513l3.158,0.349l2.999,1.215l2.551,1.99l1.881,2.56l1.124,2.971l0.28,3.224l-1.508,29.012l2.78,1.114l2.451,1.85l1.885,2.424l1.203,2.883l0.399,3.098l-0.421,3.041l-1.197,2.828l-1.929,2.456l-0.658,0.639l0.434,0.3l2.03,2.464l1.289,2.921l0.452,3.221l-0.452,3.221l-1.289,2.921l-2.03,2.464l-2.675,1.851l-19.518,9.815l-9.239,12.2l-1.876,1.958l-2.245,1.457l-2.517,0.91l-2.693,0.314l-23.204,0l-2.693,-0.314l-2.517,-0.91l-2.245,-1.457l-1.876,-1.958l-9.239,-12.2l-19.518,-9.815l-2.675,-1.851l-2.03,-2.464l-1.289,-2.921l-0.452,-3.221l0.452,-3.221l1.289,-2.921l2.03,-2.464l0.434,-0.3Zm67.964,-42.638c-0.233,-0.031 -0.471,-0.047 -0.713,-0.047l-2.609,0l-0,-13.745c-0,-2.985 -2.42,-5.405 -5.405,-5.405l-14.612,-0c-2.985,-0 -5.405,2.42 -5.405,5.405l0,13.745l-2.609,0c-0.242,0 -0.48,0.016 -0.713,0.047l-18.263,-11.849c-1.704,-1.106 -3.884,-1.163 -5.644,-0.147c-1.759,1.016 -2.8,2.933 -2.695,4.961l1.777,34.163l-4.897,1.237c-1.899,0.48 -3.39,1.949 -3.897,3.841c-0.507,1.892 0.049,3.91 1.454,5.275l6.718,6.529l-5.38,2.705c-1.825,0.918 -2.976,2.786 -2.976,4.829c-0,2.043 1.151,3.911 2.976,4.828l20.827,10.473l10.123,13.368c1.021,1.349 2.616,2.142 4.308,2.142l23.204,0c1.692,0 3.287,-0.793 4.308,-2.142l10.123,-13.368l20.827,-10.473c1.825,-0.917 2.976,-2.785 2.976,-4.828c0,-2.043 -1.151,-3.911 -2.976,-4.829l-5.38,-2.705l6.718,-6.529c1.405,-1.365 1.961,-3.383 1.454,-5.275c-0.507,-1.892 -1.998,-3.361 -3.897,-3.841l-4.897,-1.237l1.777,-34.163c0.105,-2.028 -0.936,-3.945 -2.695,-4.961c-1.76,-1.016 -3.94,-0.959 -5.644,0.147l-18.263,11.849Z" style="fill:#fff;"/><path id="Hat" d="M75.32,33.779l0,7.66l-30.64,0l-0,-7.66l8.014,0l0,-19.15l14.612,-0l-0,19.15l8.014,0Z" style="fill:#383838;"/><path id="Nose" d="M60,97.454l-7.945,-6.21l15.89,-0l-7.945,6.21Z" style="fill:#383838;"/><path id="Line" d="M76.033,28.421l18.263,-11.849c1.704,-1.106 3.884,-1.163 5.644,-0.147c1.759,1.016 2.8,2.933 2.695,4.961l-1.777,34.163l4.897,1.237c1.899,0.48 3.39,1.949 3.897,3.841c0.507,1.892 -0.049,3.91 -1.454,5.275l-6.718,6.529l5.38,2.705c1.825,0.918 2.976,2.786 2.976,4.829c0,2.043 -1.151,3.911 -2.976,4.828l-20.827,10.473l-10.123,13.368c-1.021,1.349 -2.616,2.142 -4.308,2.142l-23.204,0c-1.692,0 -3.287,-0.793 -4.308,-2.142l-10.123,-13.368l-20.827,-10.473c-1.825,-0.917 -2.976,-2.785 -2.976,-4.828c-0,-2.043 1.151,-3.911 2.976,-4.829l5.38,-2.705l-6.718,-6.529c-1.405,-1.365 -1.961,-3.383 -1.454,-5.275c0.507,-1.892 1.998,-3.361 3.897,-3.841l4.897,-1.237l-1.777,-34.163c-0.105,-2.028 0.936,-3.945 2.695,-4.961c1.76,-1.016 3.94,-0.959 5.644,0.147l18.263,11.849c0.233,-0.031 0.471,-0.047 0.713,-0.047l2.609,0l0,-13.745c0,-2.985 2.42,-5.405 5.405,-5.405l14.612,-0c2.985,-0 5.405,2.42 5.405,5.405l-0,13.745l2.609,0c0.242,0 0.48,0.016 0.713,0.047Zm-36.462,3.59l-16.808,-10.905l2.007,38.595l-9.202,2.325l12.166,11.822l-12.166,6.117l21.949,11.037l10.881,14.369l23.204,0l10.881,-14.369l21.949,-11.037l-12.166,-6.117l12.166,-11.822l-9.202,-2.325l2.007,-38.595l-16.808,10.905c0.192,0.554 0.296,1.149 0.296,1.768l0,7.66c0,2.985 -2.42,5.405 -5.405,5.405l-30.64,0c-2.985,0 -5.405,-2.42 -5.405,-5.405l-0,-7.66c-0,-0.619 0.104,-1.214 0.296,-1.768Zm35.749,1.768l-8.014,0l-0,-19.15l-14.612,-0l0,19.15l-8.014,0l-0,7.66l30.64,0l0,-7.66Zm-18.648,67.933l-7.945,-6.21c-1.818,-1.421 -2.533,-3.838 -1.782,-6.019c0.751,-2.18 2.803,-3.644 5.11,-3.644l15.89,-0c2.307,-0 4.359,1.464 5.11,3.644c0.751,2.181 0.036,4.598 -1.782,6.019l-7.945,6.21c-1.955,1.528 -4.701,1.528 -6.656,-0Zm3.328,-4.258l7.945,-6.21l-15.89,-0l7.945,6.21Z"/></svg>